Coordinates
version=1
nRows=13
nColumns=40
inDegrees=yes

Units are S.I. units (second, meters, Newtons, ...)
Angles are in degrees.

endheader
time	pelvis_tilt	pelvis_list	pelvis_rotation	pelvis_tx	pelvis_ty	pelvis_tz	hip_flexion_r	hip_adduction_r	hip_rotation_r	knee_angle_r	knee_angle_r_beta	ankle_angle_r	subtalar_angle_r	mtp_angle_r	hip_flexion_l	hip_adduction_l	hip_rotation_l	knee_angle_l	knee_angle_l_beta	ankle_angle_l	subtalar_angle_l	mtp_angle_l	lumbar_extension	lumbar_bending	lumbar_rotation	arm_flex_r	arm_add_r	arm_rot_r	elbow_flex_r	pro_sup_r	wrist_flex_r	wrist_dev_r	arm_flex_l	arm_add_l	arm_rot_l	elbow_flex_l	pro_sup_l	wrist_flex_l	wrist_dev_l
     25.44664286	     -4.32098316	     -5.41109034	      8.56848900	      0.88381872	      0.92137934	      0.44920836	      2.57296206	      2.40245358	    -17.55166653	     12.91421444	     12.91421444	     16.06929339	      0.01497194	     -4.79161434	     30.35874499	     -7.00506045	      2.20799529	     25.84737949	     25.84737949	      8.18113599	    -11.11938509	      9.74323098	     -9.44946549	      4.42905880	      6.18502182	     37.73539755	    -24.00105922	     -5.83850478	     78.49487312	     44.83152657	      0.00000000	      0.00000000	      1.36717176	    -22.70974516	    -18.25332261	     26.56500658	     47.09453585	      0.00000000	      0.00000000
     25.45828571	     -4.15980093	     -5.42645784	      8.26985325	      0.88657206	      0.92057943	      0.44737028	      2.02553453	      2.28973063	    -17.42859264	     13.30618503	     13.30618503	     17.19277273	      0.64718898	     -2.85003743	     29.53182694	     -7.14428153	      1.51579175	     25.57682892	     25.57682892	      6.55238439	    -11.66482051	      6.29761692	     -9.28609962	      4.52330726	      5.53355911	     38.81043093	    -22.91942996	     -4.01465842	     77.35676383	     44.85190265	      0.00000000	      0.00000000	      0.78678870	    -22.93269538	    -18.91847230	     25.42272595	     47.21341837	      0.00000000	      0.00000000
     25.46992857	     -4.12892409	     -5.44167430	      8.02530445	      0.88906886	      0.91981553	      0.44540576	      1.58311465	      2.18896869	    -17.20155446	     13.49104210	     13.49104210	     17.43294129	      0.69158773	     -2.90902925	     29.08527897	     -7.19846056	      1.09219345	     25.81772374	     25.81772374	      6.35693080	    -11.92260391	      6.33037638	     -9.06289917	      4.54152176	      5.75505606	     38.59083524	    -22.55429755	     -3.86497618	     77.38744627	     44.84613156	      0.00000000	      0.00000000	      0.73118145	    -23.09044069	    -18.97054268	     25.42160047	     47.22249610	      0.00000000	      0.00000000
     25.48157143	     -4.03588086	     -5.34806713	      7.80678589	      0.89152445	      0.91938153	      0.44320568	      1.14218923	      1.93433693	    -16.96760307	     13.83662807	     13.83662807	     17.65057227	      0.68087891	     -2.92795176	     28.58415808	     -7.11926550	      0.79779094	     26.16108594	     26.16108594	      6.32573906	    -12.17303770	      6.21943505	     -8.95936788	      4.47188466	      5.84308876	     38.27177713	    -22.06821146	     -3.65323767	     77.44671992	     44.83732171	      0.00000000	      0.00000000	      0.70837953	    -23.20665921	    -19.02215191	     25.40981532	     47.23209866	      0.00000000	      0.00000000
     25.49321429	     -3.93811550	     -5.23337618	      7.66183066	      0.89380059	      0.91921724	      0.44076601	      0.78840502	      1.61074819	    -16.80616151	     14.33898072	     14.33898072	     17.83038408	      0.60106111	     -2.92846298	     28.10871016	     -6.97099113	      0.62383228	     26.53012859	     26.53012859	      6.41168986	    -12.41639105	      6.04521197	     -8.87834053	      4.40687045	      5.83127389	     37.86887805	    -21.55513606	     -3.40781788	     77.49784630	     44.82740075	      0.00000000	      0.00000000	      0.73962592	    -23.30555414	    -19.07163211	     25.41159539	     47.24231728	      0.00000000	      0.00000000
     25.50485714	     -3.95664181	     -5.00213020	      7.52426799	      0.89572801	      0.91909072	      0.43811523	      0.90365284	      1.00329299	    -16.69347490	     15.52850820	     15.52850820	     18.17916939	      0.38899582	     -2.82119489	     27.72480535	     -6.64641501	      0.52359044	     26.83379303	     26.83379303	      6.48628720	    -12.73277399	      5.74453914	     -8.77374432	      4.22068196	      5.60747226	     37.52294054	    -21.01161248	     -3.03974481	     77.70871889	     44.81290533	      0.00000000	      0.00000000	      0.71674748	    -23.42803520	    -19.22961834	     25.39704017	     47.27117503	      0.00000000	      0.00000000
     25.51650000	     -3.84292651	     -4.92618727	      7.47679748	      0.89769902	      0.91954278	      0.43535755	      0.65071413	      0.66358598	    -16.64079690	     16.19027079	     16.19027079	     18.14376962	      0.30895012	     -2.78522094	     27.25102365	     -6.46121076	      0.59055403	     27.16258245	     27.16258245	      6.76871907	    -12.95253416	      5.57509691	     -8.75425816	      4.22868049	      5.52867961	     36.80964273	    -20.53348275	     -2.73565530	     77.58452616	     44.80581738	      0.00000000	      0.00000000	      0.94910948	    -23.41870607	    -19.27181774	     25.51393773	     47.28292980	      0.00000000	      0.00000000
     25.52814286	     -3.71702212	     -4.81744122	      7.44656847	      0.89948355	      0.92024265	      0.43245057	      0.57415198	      0.21101827	    -16.63072773	     17.20806669	     17.20806669	     18.09145572	      0.14706607	     -2.84895752	     26.72045313	     -6.22166819	      0.68202419	     27.39668076	     27.39668076	      7.13180455	    -13.11743237	      5.43889469	     -8.79897047	      4.21889099	      5.42038346	     36.01301168	    -20.08203486	     -2.41325129	     77.42276838	     44.79898707	      0.00000000	      0.00000000	      1.26149055	    -23.41348007	    -19.31299784	     25.67305900	     47.29582939	      0.00000000	      0.00000000
     25.53978571	     -3.86969765	     -4.49637017	      7.33736864	      0.90077358	      0.92070441	      0.42943664	      1.27569153	     -0.71769088	    -16.61047766	     19.16536457	     19.16536457	     18.15115485	     -0.02733039	     -3.10818737	     26.36688527	     -5.73196492	      0.60047174	     27.43234836	     27.43234836	      7.47492547	    -13.33488178	      5.50964767	     -8.61445087	      3.93661116	      5.40710388	     35.28870515	    -19.95802205	     -2.01471265	     77.26437073	     44.79457048	      0.00000000	      0.00000000	      1.66730137	    -23.43333919	    -19.47453190	     25.94763785	     47.33052532	      0.00000000	      0.00000000
     25.55142857	     -3.83467312	     -4.33320065	      7.30390335	      0.90216947	      0.92165280	      0.42641183	      1.62417971	     -1.38675639	    -16.62200757	     20.76552387	     20.76552387	     17.97167583	     -0.15526861	     -3.39096041	     25.81463476	     -5.42356838	      0.56756907	     27.41213220	     27.41213220	      7.91702606	    -13.39619631	      5.57273049	     -8.60138551	      3.88210441	      5.35954296	     34.32461112	    -19.72415605	     -1.61482330	     76.96716895	     44.79249362	      0.00000000	      0.00000000	      2.18829377	    -23.42426612	    -19.58969038	     26.25795904	     47.35855822	      0.00000000	      0.00000000
     25.56307143	     -3.83373607	     -4.18025738	      7.25519248	      0.90341182	      0.92266324	      0.42345679	      2.16290035	     -2.09623381	    -16.57500304	     22.61018897	     22.61018897	     17.65038494	     -0.33507738	     -3.85838720	     25.23795488	     -5.14338249	      0.45320944	     27.26344341	     27.26344341	      8.36193221	    -13.29463300	      5.64838523	     -8.57700982	      3.82159091	      5.36295853	     33.28553844	    -19.52899247	     -1.20856202	     76.55776051	     44.79370191	      0.00000000	      0.00000000	      2.78796243	    -23.41594420	    -19.69396466	     26.61506104	     47.38528149	      0.00000000	      0.00000000
     25.57471429	     -3.83773240	     -4.06136002	      7.19246280	      0.90454785	      0.92371150	      0.42063719	      2.81824483	     -2.78741666	    -16.42865862	     24.60761654	     24.60761654	     17.18676390	     -0.55926482	     -4.50018658	     24.63080375	     -4.92314541	      0.28871269	     27.02621232	     27.02621232	      8.80767002	    -13.07471161	      5.69682322	     -8.54377864	      3.78214517	      5.37178749	     32.18384650	    -19.35711526	     -0.79490885	     76.03542394	     44.79831253	      0.00000000	      0.00000000	      3.46328652	    -23.43070969	    -19.78466911	     27.01515199	     47.41030215	      0.00000000	      0.00000000
     25.58635714	     -3.83051691	     -3.92135574	      7.11535398	      0.90557629	      0.92473530	      0.41793892	      3.59335603	     -3.52006206	    -16.19695081	     26.81107624	     26.81107624	     16.59932115	     -0.91826628	     -5.23962611	     23.97515999	     -4.71980053	     -0.03939431	     26.71377595	     26.71377595	      9.22800921	    -12.75717427	      5.67572336	     -8.51933860	      3.72462867	      5.38183396	     31.06167333	    -19.15914502	     -0.38208753	     75.41507451	     44.80526184	      0.00000000	      0.00000000	      4.20599245	    -23.51382951	    -19.84801072	     27.45398081	     47.43193739	      0.00000000	      0.00000000
